<svg id="visual" viewBox="0 0 1366 700" width="1366" height="700" xmlns="http://www.w3.org/2000/svg" xmlns:xlink="http://www.w3.org/1999/xlink" version="1.1"><rect x="0" y="0" width="1366" height="700" fill="#002233"></rect><path d="M0 466L57 462.7C114 459.3 228 452.7 341.8 460.8C455.7 469 569.3 492 683.2 502.7C797 513.3 911 511.7 1024.8 499C1138.7 486.3 1252.3 462.7 1309.2 450.8L1366 439L1366 701L1309.2 701C1252.3 701 1138.7 701 1024.8 701C911 701 797 701 683.2 701C569.3 701 455.7 701 341.8 701C228 701 114 701 57 701L0 701Z" fill="#0066FF" stroke-linecap="round" stroke-linejoin="miter"></path></svg>