<svg id="visual" viewBox="0 0 1366 768" width="1366" height="768" xmlns="http://www.w3.org/2000/svg" xmlns:xlink="http://www.w3.org/1999/xlink" version="1.1"><rect x="0" y="0" width="1366" height="768" fill="#002233"></rect><path d="M336 0L344.7 32C353.3 64 370.7 128 358.8 192C347 256 306 320 283 384C260 448 255 512 260.7 576C266.3 640 282.7 704 290.8 736L299 768L0 768L0 736C0 704 0 640 0 576C0 512 0 448 0 384C0 320 0 256 0 192C0 128 0 64 0 32L0 0Z" fill="#0066FF" stroke-linecap="round" stroke-linejoin="miter"></path></svg>